:SAMPLES-PER-SECOND 30
:FULLY-SPECIFIED
:DEGREES
66
root  44.8898 37.6045 1.57886 -72.7101 -84.4993 68.0732
RightUpLeg  -20.2891 -4.37276 -2.02274
RightLeg  0.327128 2.18759 0.35433
RightFoot  -5.07481 -0.415518 6.85731
RightToes  -9.31324e-010 0 -3.6325e-017
Spine  3.3612 -0.18593 -3.197
Spine1  11.0196 0.0947152 -1.34807
HEad  -8.07973 -1.5951 -2.30855
LeftShoulder1  -0.158611 3.91904 -32.0917
LeftArm  22.2277 -17.2683 -49.7776
LeftForeArm  17.4291 -24.1152 -4.22711
LeftHand  -0.0472427 6.99147 -0.599289
RightShoulder  -0.911622 -5.88447 31.6665
RightArm  20.0683 0.342133 46.3896
RightForeArm  19.0627 8.9567 8.80425
RightHand  -0.00923494 3.5056 -0.372796
LeftUpLeg  16.4196 6.88959 -8.36979
LeftLeg  11.6652 2.16696 -1.08862
LeftFoot  -20.1506 0.3854 3.43891
LeftToes  8.61288e-010 -5.99147e-011 2.1039e-011
67
root  43.3528 37.3823 1.67014 -69.2064 -84.9312 64.6949
RightUpLeg  -21.9746 -4.32799 -0.916725
RightLeg  6.69406 -1.6452 0.410774
RightFoot  -2.64093 -0.202613 2.95852
RightToes  -9.31324e-010 0 -3.6325e-017
Spine  3.20318 -0.360081 -1.72297
Spine1  11.0047 -0.0624036 -1.51067
HEad  -8.7124 -1.33256 -2.57102
LeftShoulder1  -0.181361 3.97897 -32.013
LeftArm  20.4525 -15.9447 -50.1058
LeftForeArm  18.7699 -24.8013 -4.31864
LeftHand  -0.0387048 6.811 -0.117298
RightShoulder  -0.956139 -5.97541 32.0729
RightArm  19.4239 -0.286918 45.7989
RightForeArm  20.2462 7.77354 8.99662
RightHand  -0.0761028 3.2514 -1.26071
LeftUpLeg  18.5648 7.92728 -7.05767
LeftLeg  12.5642 0.170343 -1.21912
LeftFoot  -20.9623 0.28951 1.92272
LeftToes  8.61288e-010 -5.99147e-011 2.1039e-011
68
root  41.7302 37.3222 1.77295 -52.8565 -85.7847 48.5431
RightUpLeg  -23.2078 -5.32717 0.965654
RightLeg  12.2282 -1.25119 0.317885
RightFoot  2.15605 0.338001 -2.94694
RightToes  -9.31324e-010 0 -3.6325e-017
Spine  2.74306 -0.741874 0.322958
Spine1  11.2548 -0.803667 -0.396672
HEad  -9.30347 -1.21537 -3.43099
LeftShoulder1  -0.285602 4.23507 -32.8926
LeftArm  20.4235 -14.0909 -49.6236
LeftForeArm  18.6931 -25.2054 -4.4098
LeftHand  -0.0376326 6.71367 -0.0376934
RightShoulder  -0.946311 -5.9614 31.8899
RightArm  17.9523 -1.62595 45.1528
RightForeArm  22.1861 7.32447 8.58156
RightHand  0.00475871 3.41129 -0.182804
LeftUpLeg  20.5714 8.94171 -4.47411
LeftLeg  13.5989 -2.62241 -1.23527
LeftFoot  -20.2648 0.0864057 -0.423442
LeftToes  8.61288e-010 -5.99147e-011 2.1039e-011
69
root  39.9765 37.2231 1.86196 -29.16 -86.4632 24.8856
RightUpLeg  -23.827 -5.61949 2.66712
RightLeg  17.9241 -0.723426 -0.384915
RightFoot  3.89553 0.409025 -2.87546
RightToes  -9.31324e-010 0 -3.6325e-017
Spine  2.44335 -1.05493 3.22814
Spine1  10.9184 -0.989502 -0.614608
HEad  -9.20035 -0.452254 -4.16388
LeftShoulder1  -0.374292 4.44629 -33.5877
LeftArm  21.908 -11.5954 -49.0175
LeftForeArm  18.6517 -25.0736 -4.37531
LeftHand  -0.0412923 6.68791 -0.59091
RightShoulder  -1.05403 -6.2076 32.3944
RightArm  17.2169 -2.99718 43.6444
RightForeArm  22.6201 7.39814 8.21069
RightHand  0.0106109 3.2423 -0.0962014
LeftUpLeg  21.7281 10.3999 -1.02529
LeftLeg  17.0793 -6.43297 -2.05933
LeftFoot  -18.8788 -0.0881096 -3.06104
LeftToes  8.61288e-010 -5.99147e-011 2.1039e-011
70
root  38.2788 37.1568 1.92625 -7.50328 -87.7351 3.45569
RightUpLeg  -24.3113 -4.30691 4.27796
RightLeg  23.4768 -0.845443 -0.64833
RightFoot  1.86811 0.599516 -5.091
RightToes  -9.31324e-010 0 -3.6325e-017
Spine  2.75617 -0.933726 6.46749
Spine1  9.75987 -0.449698 -1.2788
HEad  -8.93934 -0.462698 -4.42229
LeftShoulder1  -0.356705 4.40199 -33.5665
LeftArm  22.2829 -7.85318 -48.4973
LeftForeArm  19.4144 -23.923 -4.12655
LeftHand  -0.0339912 5.41578 -1.68422
RightShoulder  -1.09041 -6.26436 32.9109
RightArm  17.1271 -4.18562 42.2995
RightForeArm  22.2905 7.15396 8.13483
RightHand  0.0508333 3.13007 0.454853
LeftUpLeg  20.7227 10.9379 1.54157
LeftLeg  23.4857 -8.11323 -3.53226
LeftFoot  -15.2948 -0.159615 -7.89709
LeftToes  8.61288e-010 -5.99147e-011 2.1039e-011
71
root  36.7271 37.1211 1.90814 17.6863 -87.4856 -21.4939
RightUpLeg  -23.9178 -3.65552 5.50513
RightLeg  27.2317 -1.74606 -1.20707
RightFoot  -0.84378 0.625212 -6.81003
RightToes  -9.31324e-010 0 -3.6325e-017
Spine  3.05794 -1.00622 7.8588
Spine1  9.18153 -0.476653 -0.000385587
HEad  -8.29992 -0.0262773 -4.29371
LeftShoulder1  -0.391162 4.48584 -33.6848
LeftArm  23.0382 -4.73511 -47.9237
LeftForeArm  19.8277 -22.0436 -4.37595
LeftHand  -0.045505 5.87792 -2.65635
RightShoulder  -1.03887 -6.14059 32.7972
RightArm  16.3927 -4.67732 42.0693
RightForeArm  21.9288 6.20211 7.97245
RightHand  0.0331742 2.34137 0.312615
LeftUpLeg  16.5456 9.86253 3.44727
LeftLeg  33.689 -8.45917 -5.61239
LeftFoot  -7.49622 0.464149 -12.5788
LeftToes  8.61288e-010 -5.99147e-011 2.1039e-011
72
root  35.307 37.1183 1.89477 36.5884 -85.679 -39.9215
RightUpLeg  -22.9664 -4.4095 7.29102
RightLeg  29.1444 -2.20606 -1.57941
RightFoot  -3.88711 0.414555 -6.75867
RightToes  -9.31324e-010 0 -3.6325e-017
Spine  3.22133 -1.23321 10.3768
Spine1  8.58466 -0.482275 0.511232
HEad  -8.2656 -0.647795 -3.67424
LeftShoulder1  -0.363711 4.41698 -33.6806
LeftArm  22.852 -2.97187 -47.2465
LeftForeArm  22.2384 -19.4256 -5.97361
LeftHand  -0.048966 5.85041 -2.99494
RightShoulder  -1.14025 -6.39018 32.9261
RightArm  15.7473 -4.43374 42.005
RightForeArm  22.4477 5.93351 7.732
RightHand  0.031724 3.19087 0.188585
LeftUpLeg  9.29811 6.57671 4.75251
LeftLeg  45.7545 -5.88116 -6.01445
LeftFoot  5.54503 1.87381 -13.0565
LeftToes  8.61288e-010 -5.99147e-011 2.1039e-011
